<?xml version="1.0" encoding="UTF-8"?><svg id="Layer_2" xmlns="http://www.w3.org/2000/svg" viewBox="0 0 283.46 41.81"><defs><style>.cls-1{fill:#f25b11;stroke-width:0px;}</style></defs><g id="Layer_1-2"><path class="cls-1" d="M36.46,12.86c0,1.52-.22,2.85-.67,4-.45,1.15-1.05,2.14-1.8,2.99-.76.85-1.65,1.56-2.68,2.13-1.03.57-2.13,1.04-3.29,1.4s-2.37.63-3.63.8c-1.25.17-2.47.26-3.66.26l13.69,14.43c.22.22.38.45.47.69.09.24.14.45.17.65,0,.35-.12.64-.35.87s-.54.35-.91.35c-.27,0-.56-.06-.87-.19-.31-.12-.61-.36-.91-.71l-14.92-15.92H3.16v13.99c0,.37-.02.73-.06,1.06s-.11.63-.2.89c-.1.26-.24.47-.43.63-.19.16-.43.24-.73.24-.72,0-1.19-.28-1.41-.84-.22-.56-.34-1.22-.34-1.99V1.41c0-.37,0-.65.02-.84.01-.19.05-.32.13-.39.07-.07.2-.11.39-.11h18.23c2.1,0,4.04.13,5.84.39s3.43.66,4.89,1.2c1.46.53,2.71,1.28,3.74,2.24,1.03.96,1.82,2.16,2.38,3.61s.84,3.23.84,5.35M33.3,12.76c0-2.48-.45-4.43-1.36-5.85-.91-1.42-2.25-2.47-4.04-3.16s-3.99-1.03-6.62-1.03H3.16v19.46h13.95c2.16,0,4.21-.1,6.18-.3,1.96-.2,3.68-.63,5.15-1.3,1.48-.67,2.65-1.61,3.53-2.84.88-1.23,1.32-2.88,1.32-4.97"/><path class="cls-1" d="M55.7,39.62c2.36,0,4.41-.15,6.18-.45,1.76-.3,3.27-.66,4.54-1.08s2.3-.86,3.11-1.3,1.43-.82,1.88-1.12c.15-.05.25-.07.3-.07.27,0,.53.13.76.39.23.26.35.54.35.84,0,.27-.12.5-.37.67-.22.22-.7.57-1.43,1.04-.73.47-1.78.95-3.14,1.43-1.37.48-3.05.91-5.06,1.28-2.01.37-4.39.56-7.14.56s-5.32-.36-7.33-1.08c-2.01-.72-3.64-1.72-4.91-3.01-1.26-1.29-2.18-2.84-2.75-4.65s-.85-3.79-.85-5.95c0-2.88.46-5.27,1.38-7.18.92-1.91,2.18-3.44,3.78-4.59,1.6-1.15,3.48-1.97,5.65-2.44,2.17-.47,4.51-.71,7.01-.71,5.16,0,9.02.97,11.59,2.92s3.85,4.73,3.85,8.36c0,.34-.16,3.67-.26,3.67h-30.02c.05,2.27.35,4.2.91,5.77.56,1.58,1.38,2.86,2.45,3.85,1.08.99,2.41,1.71,4,2.16,1.59.45,3.43.68,5.54.68M57.63,14.4c-2.31,0-4.35.2-6.14.6-1.79.4-3.31,1.03-4.56,1.92s-2.23,2.02-2.92,3.4-1.09,2.51-1.19,4.52h28.05v-1.43c0-1.24-.23-2.4-.69-3.5-.46-1.09-1.21-2.04-2.25-2.86-1.04-.82-2.41-1.46-4.09-1.93s-3.76-.71-6.21-.71"/><path class="cls-1" d="M129.07,39.62c2.36,0,4.41-.15,6.18-.45,1.76-.3,3.27-.66,4.54-1.08s2.3-.86,3.11-1.3,1.43-.82,1.88-1.12c.15-.05.25-.07.3-.07.27,0,.53.13.76.39.23.26.35.54.35.84,0,.27-.12.5-.37.67-.22.22-.7.57-1.43,1.04-.73.47-1.78.95-3.14,1.43-1.37.48-3.05.91-5.06,1.28-2.01.37-4.39.56-7.14.56s-5.32-.36-7.33-1.08c-2.01-.72-3.64-1.72-4.91-3.01-1.26-1.29-2.18-2.84-2.75-4.65s-.85-3.79-.85-5.95c0-2.88.46-5.27,1.38-7.18.92-1.91,2.18-3.44,3.78-4.59,1.6-1.15,3.48-1.97,5.65-2.44,2.17-.47,4.51-.71,7.01-.71,5.16,0,9.02.97,11.59,2.92s3.85,4.73,3.85,8.36c0,.34-.16,3.67-.26,3.67h-30.02c.05,2.27.35,4.2.91,5.77.56,1.58,1.38,2.86,2.45,3.85,1.08.99,2.41,1.71,4,2.16,1.59.45,3.43.68,5.54.68M131,14.4c-2.31,0-4.35.2-6.14.6-1.79.4-3.31,1.03-4.56,1.92s-2.23,2.02-2.92,3.4-1.09,2.51-1.19,4.52h28.05v-1.43c0-1.24-.23-2.4-.69-3.5-.46-1.09-1.21-2.04-2.25-2.86-1.04-.82-2.41-1.46-4.09-1.93s-3.76-.71-6.21-.71"/><path class="cls-1" d="M84.12,13.07h13.58c.37,0,.65.09.84.28.19.19.28.39.28.61s-.1.86-.3,1.05c-.2.19-.47.28-.82.28h-13.58v24.33c0,.79-.14,1.3-.43,1.51-.28.21-.64.32-1.06.32-.35,0-.68-.11-1-.32-.32-.21-.48-.71-.48-1.51V15.29h-3.27c-.35,0-.61-.09-.78-.28-.18-.19-.26-.83-.26-1.05s.09-.43.26-.61c.17-.19.43-.28.78-.28h3.31v-1.97c0-2,.21-3.69.61-5.06.41-1.37.99-2.47,1.75-3.3.76-.83,1.67-1.43,2.73-1.8s2.27-.56,3.61-.56c.74,0,1.45-.03,2.12,0,.79.03,1.17.06,2.03.17.69.09,1.4.27,2.16.46.76.19,1.58.44,2.47.74.77.25,1.13.98.97,1.41-.16.45-.65.83-1.68.57-1.34-.47-2.63-.79-3.89-.97-1.25-.17-2.47-.26-3.66-.26-.97,0-1.84.11-2.62.32-.78.21-1.44.63-1.99,1.25-.55.62-.96,1.49-1.25,2.62-.29,1.13-.43,2.6-.43,4.41v1.98Z"/><path class="cls-1" d="M107.34,38.84c0,.72-.09,1.33-.26,1.84-.17.51-.57.76-1.19.76-.66,0-1.07-.3-1.3-.76-.22-.44-.22-1.42-.22-1.77V2.68c0-.37.01-.72.04-1.04.02-.32.09-.6.21-.84.11-.24.27-.43.48-.58.21-.15.39-.22.76-.22.41,0,.65.07.84.22.19.15.33.35.43.6.1.25.16.53.19.84.02.31.04.63.04.95v36.23Z"/><path class="cls-1" d="M171.03,14.4c-2.85,0-5.28.24-7.29.71-2.01.47-3.65,1.22-4.93,2.25-1.28,1.03-2.21,2.35-2.81,3.96-.6,1.61-.89,3.55-.89,5.8s.33,4.22.99,5.8c.66,1.59,1.65,2.88,2.98,3.87,1.33.99,2.98,1.71,4.97,2.16s4.3.67,6.96.67c1.19,0,2.4-.09,3.63-.26s2.4-.39,3.52-.65c1.12-.26,2.15-.55,3.09-.87.94-.32,1.71-.63,2.31-.93.37-.12.63-.19.78-.19.32,0,.58.09.76.28.19.19.28.41.28.69,0,.2-.06.4-.19.61-.12.21-.32.39-.59.54-2.18,1.12-4.44,1.89-6.77,2.33s-4.59.65-6.77.65c-2.83,0-5.4-.22-7.72-.67s-4.3-1.23-5.95-2.34c-1.65-1.12-2.93-2.62-3.85-4.5-.92-1.88-1.38-4.28-1.38-7.18s.42-5.27,1.26-7.18c.84-1.91,2.07-3.44,3.68-4.59,1.61-1.15,3.59-1.97,5.93-2.44,2.34-.47,5.01-.71,8.02-.71,2.18,0,4.44.22,6.77.65s4.59,1.21,6.77,2.33c.27.15.47.33.59.54s.19.42.19.61c0,.27-.09.5-.28.69s-.44.28-.76.28c-.15,0-.41-.06-.78-.19-.59-.3-1.36-.61-2.31-.93-.94-.32-1.97-.61-3.09-.87-1.12-.26-2.29-.48-3.52-.65s-2.42-.26-3.59-.26"/><path class="cls-1" d="M210.47,12.97c.37,0,.65.09.84.28s.28.39.28.61-.09.96-.28,1.15-.46.28-.84.28h-12.35v15.77c0,1.81.19,3.27.56,4.39.37,1.12.87,1.98,1.51,2.6.63.62,1.38,1.03,2.23,1.24.86.21,1.77.32,2.74.32,1.19,0,2.36-.21,3.5-.63,1.14-.42,2.45-1.03,3.94-1.82.3-.15.58-.22.85-.22.32,0,.58.09.76.28s.28.42.28.69c0,.5-.27.89-.82,1.19-1.04.57-1.97,1.03-2.77,1.38-.81.35-1.55.62-2.23.82-.68.2-1.35.33-1.99.41-.65.07-1.33.11-2.05.11-1.34,0-2.59-.19-3.74-.56-1.15-.37-2.16-.97-3.01-1.8-.86-.83-1.53-1.93-2.01-3.31-.48-1.38-.73-3.07-.73-5.08v-15.77h-3.27c-.35,0-.61-.09-.78-.28s-.26-.92-.26-1.15.09-.43.26-.61.43-.28.78-.28h3.27V4.24c0-.79.16-1.3.48-1.51.32-.21.66-.32,1-.32.42,0,.77.11,1.06.32.28.21.43.71.43,1.51v8.73h12.35Z"/><path class="cls-1" d="M236.36,41.81c-3.42,0-6.31-.34-8.67-1.02-2.36-.68-4.26-1.65-5.71-2.92-1.45-1.27-2.5-2.8-3.14-4.61-.65-1.81-.97-3.86-.97-6.14,0-2.63.37-4.88,1.1-6.75s1.86-3.42,3.39-4.63c1.52-1.21,3.45-2.11,5.76-2.68,2.32-.57,5.07-.85,8.24-.85s5.92.28,8.24.85c2.32.57,4.24,1.46,5.76,2.68,1.53,1.22,2.66,2.76,3.39,4.63s1.1,4.12,1.1,6.75c0,2.28-.32,4.33-.97,6.14-.65,1.81-1.69,3.35-3.14,4.61-1.45,1.26-3.36,2.24-5.71,2.92s-5.24,1.02-8.67,1.02M236.36,39.62c2.26,0,4.2-.17,5.84-.5,1.64-.33,3.03-.8,4.19-1.39,1.15-.6,2.08-1.29,2.79-2.08.71-.79,1.26-1.66,1.68-2.59.41-.93.68-1.9.82-2.9.14-1.01.2-2.02.2-3.03,0-2.31-.3-4.27-.89-5.88-.6-1.61-1.53-2.93-2.79-3.94s-2.88-1.76-4.84-2.21c-1.96-.46-4.29-.69-6.99-.69s-5.07.23-7.01.69-3.55,1.2-4.82,2.21-2.19,2.33-2.79,3.94c-.59,1.61-.89,3.57-.89,5.88,0,1.02.07,2.03.2,3.03.14,1,.41,1.97.82,2.9.41.93.97,1.79,1.68,2.59.71.79,1.64,1.49,2.79,2.08,1.16.6,2.55,1.06,4.19,1.39,1.64.34,3.58.5,5.84.5"/><path class="cls-1" d="M282.68,13.09c.27.07.47.22.6.43.12.21.19.44.19.69,0,.32-.11.62-.32.89-.21.27-.53.41-.95.41-.12,0-.2,0-.22-.02s-.1-.03-.22-.06c-.97-.27-1.89-.48-2.77-.63-.88-.15-1.84-.22-2.88-.22-1.46,0-2.86.14-4.19.43-1.33.29-2.53.72-3.61,1.3-1.08.58-2.02,1.33-2.81,2.23-.8.91-1.39,1.97-1.79,3.18v17.11c0,.64-.09,1.24-.26,1.78-.17.55-.57.82-1.19.82-.35,0-.63-.07-.84-.22-.21-.15-.37-.35-.46-.6-.1-.25-.16-.53-.19-.84-.02-.31-.04-.63-.04-.95V15.03c0-.57.1-1.06.3-1.47.2-.41.66-.61,1.38-.61.55,0,.9.2,1.06.6.16.4.24.89.24,1.49v4.32c.4-1.51,1.08-2.74,2.06-3.68.98-.94,2.07-1.67,3.27-2.18,1.2-.51,2.44-.85,3.7-1.02,1.27-.17,2.38-.26,3.35-.26s1.75.03,2.44.09c.68.06,1.27.14,1.77.22.5.09.93.18,1.3.28s.73.2,1.08.3"/></g></svg>